<svg id="Layer_1" data-name="Layer 1" xmlns="http://www.w3.org/2000/svg" viewBox="0 0 211.45 32.94"><defs><style>.cls-1{fill:#df5d26;}</style></defs><path class="cls-1" d="M12.93,9.53H3.7L5.37,1.3H34.44L32.77,9.53H23.55L18.91,32.8H8.29Z" transform="translate(-3.7 -0.58)"/><path class="cls-1" d="M39.27,31.74a13.25,13.25,0,0,1-5.58-5,13.81,13.81,0,0,1-1.95-7.34,18.83,18.83,0,0,1,2.54-9.79A17.55,17.55,0,0,1,41.34,3,21.63,21.63,0,0,1,51.58.58,19,19,0,0,1,60,2.35a13.27,13.27,0,0,1,5.58,5,13.78,13.78,0,0,1,2,7.33A18.83,18.83,0,0,1,65,24.45,17.55,17.55,0,0,1,58,31.13a21.64,21.64,0,0,1-10.24,2.39A19,19,0,0,1,39.27,31.74ZM53,23.62a8.4,8.4,0,0,0,2.86-3.51,11.8,11.8,0,0,0,1-4.82,6,6,0,0,0-1.65-4.45,6.05,6.05,0,0,0-4.52-1.67,7.49,7.49,0,0,0-4.39,1.31A8.3,8.3,0,0,0,43.44,14a11.6,11.6,0,0,0-1,4.81,6.06,6.06,0,0,0,1.64,4.46,6,6,0,0,0,4.52,1.66A7.48,7.48,0,0,0,53,23.62Z" transform="translate(-3.7 -0.58)"/><path class="cls-1" d="M76.08,31.74a13.25,13.25,0,0,1-5.58-5,13.81,13.81,0,0,1-2-7.34,18.83,18.83,0,0,1,2.54-9.79A17.55,17.55,0,0,1,78.15,3,21.63,21.63,0,0,1,88.39.58a19,19,0,0,1,8.44,1.77,13.27,13.27,0,0,1,5.58,5,13.78,13.78,0,0,1,2,7.33,18.83,18.83,0,0,1-2.55,9.79,17.55,17.55,0,0,1-7.06,6.68,21.64,21.64,0,0,1-10.24,2.39A19,19,0,0,1,76.08,31.74Zm13.73-8.12a8.4,8.4,0,0,0,2.86-3.51,11.8,11.8,0,0,0,1-4.82A6,6,0,0,0,92,10.84a6.05,6.05,0,0,0-4.52-1.67,7.49,7.49,0,0,0-4.39,1.31A8.38,8.38,0,0,0,80.25,14a11.6,11.6,0,0,0-1,4.81,6.06,6.06,0,0,0,1.64,4.46,6,6,0,0,0,4.52,1.66A7.48,7.48,0,0,0,89.81,23.62Z" transform="translate(-3.7 -0.58)"/><path class="cls-1" d="M109.9,1.3h10.62l-4.63,23.26h14.22l-1.67,8.24H103.6Z" transform="translate(-3.7 -0.58)"/><path d="M136.31,1.3h14.22a20.88,20.88,0,0,1,8.58,1.62,12.5,12.5,0,0,1,5.56,4.63,13,13,0,0,1,1.93,7.11,17.93,17.93,0,0,1-2.52,9.56,16.76,16.76,0,0,1-7,6.35,22.62,22.62,0,0,1-10.19,2.23H130Zm10.94,23.22a8.06,8.06,0,0,0,6.37-2.59,9.73,9.73,0,0,0,2.27-6.64,5.32,5.32,0,0,0-1.69-4.23,7.16,7.16,0,0,0-4.88-1.48h-4l-3,14.94Z" transform="translate(-3.7 -0.58)"/><path d="M172.13,1.3h10.62l-6.3,31.5H165.83Z" transform="translate(-3.7 -0.58)"/><path d="M189.66,31.74A13.13,13.13,0,0,1,182,19.43a18.76,18.76,0,0,1,2.54-9.76A17.81,17.81,0,0,1,191.6,3,21.57,21.57,0,0,1,201.88.58a18.7,18.7,0,0,1,8.05,1.64,11.26,11.26,0,0,1,5.22,4.66l-7.65,6a6.83,6.83,0,0,0-6.3-3.69,8.12,8.12,0,0,0-4.41,1.22,8.21,8.21,0,0,0-3,3.39,11.11,11.11,0,0,0-1.08,5,5.85,5.85,0,0,0,1.78,4.47,6.51,6.51,0,0,0,4.7,1.69,8.91,8.91,0,0,0,7-3.64l6.25,6a15.82,15.82,0,0,1-6.23,4.82,21,21,0,0,1-8.08,1.44A19.3,19.3,0,0,1,189.66,31.74Z" transform="translate(-3.7 -0.58)"/></svg>